# xmcd
#
# Track frame offsets:
#	150
#	13431
#	28809
#	43090
#	56911
#	73368
#	90995
#	106497
#	123578
#	136193
#	149474
#	164852
#	179133
#	192954
#	209411
#	227038
#	242540
#	259621
#
# Disc length: 3629 seconds
#
# Revision: 0
# Processed by: cddbd v1.5.2PL0 Copyright (c) Steve Scherf et al.
# Submitted via: audiograbber 1.83.01
#
DISCID=1d0e2b12
DTITLE=Various Artist - PHMC2110306
DYEAR=2011
DGENRE=Country
TTITLE0=Bradley Gaskin - Mr. Bartender
TTITLE1=Ashley Gearing - Five More Minutes
TTITLE2=The Roys - Coal Minin' Man
TTITLE3=Guy Penrod - Pray About Everything
TTITLE4=Sandra Piller - Day Like These
TTITLE5=Sarah Darling - Whenever It Rains
TTITLE6=Sra Evans - Alone
TTITLE7=Jimmy White - Katy Did
TTITLE8=Lee Ann Womack - I'm A Honky Tonk Girl
TTITLE9=Bradley Gaskin - Mr. Bartender w/ vocal
TTITLE10=Ashley Gearing - Five More Minutes w/ vocal
TTITLE11=The Roys - Coal Minin' Man w/ vocal
TTITLE12=Guy Penrod - Pray About Everything w/ vocal
TTITLE13=Sandra Piller - Day Like These w/ vocal
TTITLE14=Sarah Darling - Whenever It Rains w/ vocal
TTITLE15=Sra Evans - Alone w/ vocal
TTITLE16=Jimmy White - Katy Did w/ vocal
TTITLE17=Lee Ann Womack - I'm A Honky Tonk Girl w/ vocal
EXTD=
EXTT0=
EXTT1=
EXTT2=
EXTT3=
EXTT4=
EXTT5=
EXTT6=
EXTT7=
EXTT8=
EXTT9=
EXTT10=
EXTT11=
EXTT12=
EXTT13=
EXTT14=
EXTT15=
EXTT16=
EXTT17=
PLAYORDER=
